<svg width="24" height="24" viewBox="0 0 24 24" fill="currentColor" xmlns="http://www.w3.org/2000/svg">
<path d="M10 6C10 7.10457 9.10457 8 8 8C6.89543 8 6 7.10457 6 6C6 4.89543 6.89543 4 8 4C9.10457 4 10 4.89543 10 6ZM10 12C10 13.1046 9.10457 14 8 14C6.89543 14 6 13.1046 6 12C6 10.8954 6.89543 10 8 10C9.10457 10 10 10.8954 10 12ZM10 18C10 19.1046 9.10457 20 8 20C6.89543 20 6 19.1046 6 18C6 16.8954 6.89543 16 8 16C9.10457 16 10 16.8954 10 18ZM16 6C16 7.10457 16.8954 8 18 8C19.1046 8 20 7.10457 20 6C20 4.89543 19.1046 4 18 4C16.8954 4 16 4.89543 16 6ZM16 12C16 13.1046 16.8954 14 18 14C19.1046 14 20 13.1046 20 12C20 10.8954 19.1046 10 18 10C16.8954 10 16 10.8954 16 12ZM16 18C16 19.1046 16.8954 20 18 20C19.1046 20 20 19.1046 20 18C20 16.8954 19.1046 16 18 16C16.8954 16 16 16.8954 16 18Z"/>
</svg>
