<svg xmlns="http://www.w3.org/2000/svg" viewBox="0 0 24 24" fill="currentColor" class="w-6 h-6">
  <path d="M11.645 20.91l-.007-.003-.022-.012a15.247 15.247 0 01-1.383-.598 15.25 15.25 0 01-1.313-.635 14.27 14.27 0 01-1.171-.742 13.528 13.528 0 01-1.014-.882 12.35 12.35 0 01-.849-1.037 11.239 11.239 0 01-.632-1.217 10.428 10.428 0 01-.39-1.422 9.76 9.76 0 01-.158-1.618 9.945 9.945 0 01.03-2.028c.09-.64.248-1.26.46-1.839a5.338 5.338 0 01.69-1.511 4.5 4.5 0 011.012-1.248 4.5 4.5 0 011.46- .8c.207-.06.417-.11.63-.153.21-.042.424-.076.642-.1a.12.12 0 00.026-.003c.118-.024.238-.042.359-.054.12-.012.24-.018.359-.018.12 0 .24.006.359.018.12.012.24.03.359.054a.12.12 0 00.026.003c.218.024.432.058.642.1.213.043.423.093.63.153a4.5 4.5 0 011.46.8c.45.38.82.848 1.012 1.248.182.43.32.89.44 1.353.118.46.216.92.29 1.38a10.25 10.25 0 01.07 2.115 9.92 9.92 0 01-.157 1.618 10.428 10.428 0 01-.39 1.422 11.239 11.239 0 01-.632 1.217 12.35 12.35 0 01-.849-1.037 13.528 13.528 0 01-1.014.882 14.27 14.27 0 01-1.171.742 15.25 15.25 0 01-1.313.635 15.247 15.247 0 01-1.383.598l-.022.012-.007.003z" />
</svg>
