<svg xmlns="http://www.w3.org/2000/svg" viewBox="0 0 24 24" fill="currentColor" class="w-6 h-6">
  <path fill-rule="evenodd" d="M12 6.75a5.25 5.25 0 015.25 5.25c0 2.843-2.223 5.154-5.021 5.249a.75.75 0 01-.229-1.488A3.75 3.75 0 0015.75 12 3.75 3.75 0 0012 8.25v-1.5z" clip-rule="evenodd" />
  <path d="M8.25 4.5a.75.75 0 01.75.75v1.5a3.75 3.75 0 00-3.75 3.75c0 1.518 1.01 2.825 2.456 3.422a.75.75 0 11.536 1.352A5.251 5.251 0 016.75 12a5.25 5.25 0 015.25-5.25V4.5a.75.75 0 01-1.5 0z" />
  <path d="M12 1.5a.75.75 0 01.75.75v1.5a.75.75 0 01-1.5 0v-1.5A.75.75 0 0112 1.5z" />
  <path d="M12 15.75a.75.75 0 01.75.75v3a.75.75 0 01-1.5 0v-3a.75.75 0 01.75-.75z" />
  <path d="M5.03 10.28a.75.75 0 01.22.53v.018a.75.75 0 01-1.498.076A5.25 5.25 0 0112 6.75v-1.5a.75.75 0 010 1.5v.008a3.75 3.75 0 00-4.492 3.712z" />
  <path d="M18.97 10.28a.75.75 0 01.75-.75h.008a.75.75 0 010 1.5h-.008a.75.75 0 01-.75-.75z" />
</svg>
